<?xml version="1.0" encoding="iso-8859-1"?>
<!-- Generator: Adobe Illustrator 19.0.0, SVG Export Plug-In . SVG Version: 6.00 Build 0)  -->
<svg version="1.1" id="Capa_1" xmlns="http://www.w3.org/2000/svg" xmlns:xlink="http://www.w3.org/1999/xlink" x="0px" y="0px"
	 viewBox="0 0 511.999 511.999" style="enable-background:new 0 0 511.999 511.999;" xml:space="preserve">
<g>
	<g>
		<path d="M255.976,204.004c-8.615,0-18.003,7.049-23.781,12.46c1.481,5.212,3.82,12.476,7.031,19.599
			c6.778,15.037,13.261,20.372,16.752,20.372c3.492,0,9.974-5.335,16.752-20.372c3.211-7.123,5.55-14.387,7.031-19.603
			C273.86,210.931,264.5,204.004,255.976,204.004z"/>
	</g>
</g>
<g>
	<g>
		<path d="M509.973,193.69c-2.396-4.172-6.614-6.974-11.389-7.559c-67.506-8.296-147.936-51.346-232.593-124.498
			c-5.768-4.984-14.325-4.954-20.058,0.066C160.269,136.728,84.213,177.43,13.416,186.129c-4.775,0.586-8.995,3.387-11.388,7.559
			c-2.394,4.172-2.685,9.228-0.783,13.646l56.178,130.537l30.907-7.366c0.181-0.044,0.363-0.084,0.545-0.12
			c110.898-22.181,223.357-22.179,334.255,0.008c0.183,0.036,0.365,0.075,0.546,0.119l30.898,7.367l56.181-130.545
			C512.656,202.917,512.366,197.862,509.973,193.69z M311.588,215.247c-0.142,0.673-3.551,16.683-10.781,32.887
			c-14.33,32.119-32.288,38.86-44.83,38.86c-12.542,0-30.499-6.741-44.829-38.86c-7.229-16.203-10.64-32.213-10.781-32.887
			c-0.94-4.475,0.171-9.135,3.031-12.702c2.388-2.979,24.15-29.098,52.58-29.098s50.192,26.121,52.58,29.098
			C311.417,206.112,312.53,210.772,311.588,215.247z"/>
	</g>
</g>
<g>
	<g>
		<path d="M416.861,360.306c-106.74-21.32-214.981-21.321-321.72-0.007l-32.509,7.748c0.585,9.735,3.54,20.991,11.008,31.938
			c24.493,35.899,85.84,54.101,182.337,54.101s157.842-18.202,182.336-54.101c7.47-10.947,10.426-22.205,11.009-31.94
			L416.861,360.306z"/>
	</g>
</g>
<g>
</g>
<g>
</g>
<g>
</g>
<g>
</g>
<g>
</g>
<g>
</g>
<g>
</g>
<g>
</g>
<g>
</g>
<g>
</g>
<g>
</g>
<g>
</g>
<g>
</g>
<g>
</g>
<g>
</g>
</svg>
