<?xml version="1.0" encoding="UTF-8" standalone="no"?>
<!-- Created with Inkscape (http://www.inkscape.org/) -->

<svg
   xmlns:dc="http://purl.org/dc/elements/1.1/"
   xmlns:cc="http://creativecommons.org/ns#"
   xmlns:rdf="http://www.w3.org/1999/02/22-rdf-syntax-ns#"
   xmlns:svg="http://www.w3.org/2000/svg"
   xmlns="http://www.w3.org/2000/svg"
   xmlns:sodipodi="http://sodipodi.sourceforge.net/DTD/sodipodi-0.dtd"
   xmlns:inkscape="http://www.inkscape.org/namespaces/inkscape"
   width="210mm"
   height="297mm"
   viewBox="0 0 210 297"
   version="1.1"
   id="svg8"
   inkscape:version="0.92.3 (2405546, 2018-03-11)"
   sodipodi:docname="dessin-1.svg">
  <defs
     id="defs2">
    <linearGradient
       gradientUnits="userSpaceOnUse"
       y2="689.85"
       y1="355.11"
       x2="0"
       id="a">
      <stop
         id="stop114"
         offset="0"
         stop-color="#a4cbd8" />
      <stop
         id="stop116"
         offset="1"
         stop-opacity="0"
         stop-color="#b4c3dc" />
    </linearGradient>
  </defs>
  <sodipodi:namedview
     id="base"
     pagecolor="#ffffff"
     bordercolor="#666666"
     borderopacity="1.0"
     inkscape:pageopacity="0.0"
     inkscape:pageshadow="2"
     inkscape:zoom="0.98994949"
     inkscape:cx="243.8044"
     inkscape:cy="515.56983"
     inkscape:document-units="mm"
     inkscape:current-layer="layer1"
     showgrid="false"
     inkscape:window-width="1920"
     inkscape:window-height="1057"
     inkscape:window-x="-8"
     inkscape:window-y="-8"
     inkscape:window-maximized="1" />
  <metadata
     id="metadata5">
    <rdf:RDF>
      <cc:Work
         rdf:about="">
        <dc:format>image/svg+xml</dc:format>
        <dc:type
           rdf:resource="http://purl.org/dc/dcmitype/StillImage" />
        <dc:title></dc:title>
      </cc:Work>
    </rdf:RDF>
  </metadata>
  <g
     inkscape:label="Calque 1"
     inkscape:groupmode="layer"
     id="layer1">
    <g
       id="g133"
       transform="matrix(0.24917173,0,0,0.26458333,20.291457,-37.277059)">
      <path
         id="path121"
         d="m -64.697,509.94 h 824.49 v 399.12 h -824.49 z"
         inkscape:connector-curvature="0"
         style="fill:#ffffff" />
      <path
         id="path123"
         d="m -53.5312,798.3604 808.078,-42.04 -0.5328,52.1196 h -810 z"
         inkscape:connector-curvature="0"
         style="fill:url(#a)"
         sodipodi:nodetypes="ccccc" />
      <path
         id="path125"
         d="m 582.66,733.15 c -7.9425,0.096 -14.247,2.4316 -19.543,6.6411 -4.7511,3.9117 -6.5784,8.1422 -4.6882,8.6927 3.5505,-2.2358 7.7506,-3.5334 12.256,-3.5334 12.724,0 23.038,10.314 23.038,23.039 0,12.725 -10.838,19.032 -23.038,22.644 -9.7944,2.8988 -22.894,3.0482 -32.613,-0.023 h -0.01 c -59.7,-24.288 -125.25,-90.21 -206.47,-23.882 -48.173,39.337 -85.403,-14.42 -148.1,-21.253 -25.393,-2.7674 -60.123,11.681 -74.723,22.97 -24.517,18.317 -156.048532,-79.20201 -206.698532,33.45499 -16.177998,21.032 57.660437,33.69682 44.246532,100.45001 h 808.23 c 0,-48.67667 146.92321,-81.97943 0,-146.03 -36.544,-5.2548 -78.621,-0.7177 -114.45,14.338 -9.3227,-12.76 -22.301,-28.146 -41.229,-35.188 -6.0807,-1.6294 -11.434,-2.3826 -16.2,-2.3252 z m -27.111,20.524 c -1.7726,0.088 -3.1761,4.3822 -3.1761,6.1395 0,1.8142 1.4979,3.2826 3.3509,3.2826 1.853,0 3.3585,-1.4684 3.3585,-3.2826 0,-1.8142 -1.5055,-6.1395 -3.3585,-6.1395 -0.058,0 -0.1175,-0.01 -0.1748,0 z"
         inkscape:connector-curvature="0"
         style="fill:#275e85;fill-opacity:0.90816325"
         sodipodi:nodetypes="cccsscccccccccccccccssssc" />
      <path
         id="path127"
         d="m 333.69,734.53 c -7.9425,0.096 -14.247,2.4316 -19.543,6.641 -4.7511,3.9117 -6.5784,8.1421 -4.6882,8.6926 3.5504,-2.2357 7.7506,-3.5332 12.256,-3.5332 12.724,0 23.038,10.314 23.038,23.038 0,6.7597 -1.3843,10.271 -4.3463,13.024 -39.329,4.3705 -45.326,24.768 -61.791,31.268 -17.381,6.8609 -61.892,3.8434 -100.41,-5.3873 -7.1654,-14.383 -17.474,-41.147 -40.986,-54.83 -15.24,-7.039 -26.46,-7.0198 -35.956,-1.8237 -5.3471,3.0468 -7.8706,6.9093 -6.1016,7.7732 3.879,-1.5994 8.2418,-2.1642 12.682,-1.3981 12.539,2.1637 20.947,14.079 18.783,26.618 -0.5757,3.3366 -1.8388,6.3533 -3.6169,8.9433 -31.658,-4.8674 -61.747,-0.6729 -81.714,7.4618 -26.26,10.699 -37.445,23.829 -85.103,8.267 l 2.4316,93.074 801.1684,6.7014 29.05582,-90.02571 c -24.56,-23.007 -93.62322,-43.44469 -148.05422,-43.25869 -73.661,-1.1044 -83.266,43.956 -108.33,47.612 -46.302,5.5883 -71.95,-26.179 -131.57,-37.742 -9.4552,-12.361 -24.318,-38.862 -51.001,-48.79 -6.0808,-1.6293 -11.442,-2.3826 -16.208,-2.3251 z"
         inkscape:connector-curvature="0"
         style="fill:#79acd4;fill-opacity:0.45408162"
         sodipodi:nodetypes="cccsscccccccccccccccccccc" />
      <path
         id="path129"
         d="m 409.05,787.63 c -5.901,0.098 -10.995,1.6767 -15.594,4.5312 -5.1721,3.3352 -7.4701,7.3281 -5.6563,8.0938 3.7855,-1.8098 8.1183,-2.6154 12.594,-2.0938 12.638,1.4731 24.224,13.932 21.156,26.281 -5.4261,21.841 -30.49,21.944 -50.719,16.281 -27.456,-7.6867 -53.46,-27.288 -93.594,-28.469 -87.199,-2.5648 -92.588,29.437 -125.53,44.625 -23.645,8.96 -43.748,-40.208 -78.969,-53.313 -16.216,-4.3449 -27.276,-2.4226 -35.75,4.3126 -4.7513,3.9115 -6.5777,8.1369 -4.6876,8.6874 3.5506,-2.2358 7.7757,-3.5312 12.281,-3.5312 12.724,0 23.031,10.307 23.031,23.031 0,7.1102 -3.2193,13.352 -8.2813,17.469 -45.448,-17.8 -113.871532,-56.56561 -157.260532,-51.63461 L -88.016014,909.48161 759.793,909.06 l 36.62784,-7.61974 c -71.785,-48.11 -161.81264,-96.34846 -250.52264,-96.78046 -38.204,0.1256 -57.69,14.482 -79.469,27.25 -7.7872,-13.784 -18.91,-30.651 -36.969,-39.875 -7.8017,-3.0965 -14.505,-4.5043 -20.406,-4.4062 z"
         inkscape:connector-curvature="0"
         style="fill:#ffffff"
         sodipodi:nodetypes="cccccccccccsscccccccccc" />
      <path
         id="path131"
         d="m 89.15028,774.9634 c -1.7728,0.088 -3.1838,4.3821 -3.1838,6.1396 0,1.8141 1.5055,3.2901 3.3585,3.2901 1.853,0 3.3509,-1.476 3.3509,-3.2901 0,-1.8141 -1.4979,-6.1396 -3.3509,-6.1396 -0.058,0 -0.1176,-0.01 -0.1747,0 z"
         inkscape:connector-curvature="0"
         style="fill:#79acd4" />
    </g>
  </g>
</svg>
