<?xml version="1.0" encoding="UTF-8" standalone="no"?>
<svg
   xmlns:dc="http://purl.org/dc/elements/1.1/"
   xmlns:cc="http://creativecommons.org/ns#"
   xmlns:rdf="http://www.w3.org/1999/02/22-rdf-syntax-ns#"
   xmlns:svg="http://www.w3.org/2000/svg"
   xmlns="http://www.w3.org/2000/svg"
   id="svg8"
   version="1.1"
   viewBox="0 0 210 297"
   height="297mm"
   width="210mm">
  <defs
     id="defs2" />
  <metadata
     id="metadata5">
    <rdf:RDF>
      <cc:Work
         rdf:about="">
        <dc:format>image/svg+xml</dc:format>
        <dc:type
           rdf:resource="http://purl.org/dc/dcmitype/StillImage" />
        <dc:title></dc:title>
      </cc:Work>
    </rdf:RDF>
  </metadata>
  <g
     id="layer1">
    <path
       d="m 537.16211,550.49414 -0.2793,0.16992 c -0.16855,0.10246 -0.33176,0.20243 -0.5,0.30469 0.53903,0.0371 1.07817,0.0721 1.61719,0.10937 -0.18955,-0.13177 -0.38285,-0.26667 -0.57227,-0.39843 z m 136.93164,2.98633 c -4.21188,2.52699 -8.42232,5.05509 -12.63086,7.58008 0.59703,0.0301 1.20006,0.0563 1.79688,0.0879 4.1499,-2.48986 8.30122,-4.98232 12.45507,-7.47461 -0.54036,-0.0643 -1.08073,-0.12894 -1.62109,-0.19336 z m 10.95117,1.30273 c 2.3762,2.85133 4.75163,5.7029 7.13477,8.5625 0.45998,0.0453 0.95684,0.0977 1.42383,0.14453 -2.37001,-2.84394 -4.74221,-5.68997 -7.11329,-8.53515 -0.48181,-0.0568 -0.9635,-0.11501 -1.44531,-0.17188 z M -4.9609375,642.81055 c -0.1271975,0.0856 -0.2714212,0.18208 -0.3984375,0.26757 0.00531,8.3e-4 0.010319,0.003 0.015625,0.004 l 0.3867188,-0.26172 c -0.00136,-0.003 -0.00255,-0.007 -0.00391,-0.01 z m 63.4394535,98.83203 c -0.238704,0.24646 -0.396522,0.47283 -0.417969,0.66406 0.261005,0.0228 0.522211,0.0435 0.783203,0.0664 0.05745,-0.0956 0.11227,-0.2047 0.164062,-0.32617 -0.031,-0.0629 -0.06307,-0.12728 -0.09375,-0.18946 -0.146921,-0.069 -0.289866,-0.14399 -0.435546,-0.21484 z m -215.818356,3.72851 C -499.73173,975.82688 -1049.9771,1346.1852 -1273.1367,1496.3887 L -157.32422,745.375 c -0.005,-9e-4 -0.0104,-0.003 -0.0156,-0.004 z m 1.42187,0.23829 -1116.66013,751.60942 c 223.3347,-150.3215 774.46964,-521.27611 1116.6738,-751.60552 -0.005,-8e-4 -0.009,-0.003 -0.0137,-0.004 z"
       style="fill:#000000;fill-rule:nonzero;stroke:none;stroke-width:0.99999994px;stroke-linecap:butt;stroke-linejoin:miter;stroke-opacity:1"
       transform="scale(0.26458333)"
       id="path93" />
    <path
       d="M 60.400591,159.17281 A 22.526518,14.119227 0 0 1 38.074549,173.29147 22.526518,14.119227 0 0 1 15.351123,159.4241 22.526518,14.119227 0 0 1 37.27271,145.05861 22.526518,14.119227 0 0 1 60.386319,158.67029 l -22.512246,0.50252 z"
       id="path113"
       style="fill:#37abc8;stroke-width:0.25897548" />
    <path
       d="M 104.84974,158.66071 A 22.526518,14.119227 0 0 1 82.523695,172.77937 22.526518,14.119227 0 0 1 59.80027,158.912 22.526518,14.119227 0 0 1 81.721856,144.54651 22.526518,14.119227 0 0 1 104.83547,158.15819 l -22.512251,0.50252 z"
       id="path113-1"
       style="fill:#37abc8;stroke-width:0.25897548" />
    <path
       d="m 149.8289,159.0387 a 22.526518,14.119227 0 0 1 -22.32604,14.11866 22.526518,14.119227 0 0 1 -22.72343,-13.86736 22.526518,14.119227 0 0 1 21.92159,-14.3655 22.526518,14.119227 0 0 1 23.11361,13.61168 l -22.51225,0.50252 z"
       id="path113-1-3"
       style="fill:#37abc8;stroke-width:0.25897548" />
    <path
       d="m 194.80809,158.66071 a 22.526518,14.119227 0 0 1 -22.32604,14.11866 22.526518,14.119227 0 0 1 -22.72343,-13.86737 22.526518,14.119227 0 0 1 21.92159,-14.36549 22.526518,14.119227 0 0 1 23.11361,13.61168 l -22.51225,0.50252 z"
       id="path113-1-3-5"
       style="fill:#37abc8;stroke-width:0.25897548" />
    <rect
       y="157.14882"
       x="15.270237"
       height="21.544643"
       width="179.16072"
       id="rect169"
       style="fill:#37abc8;stroke-width:0.22321045" />
    <path
       id="path173"
       d="M 109.07706,82.206171 C 90.299201,97.174011 33.965634,142.07753 15.187778,157.04537 Z M 15.352696,157.25227 C 34.130552,142.28443 90.464119,97.380909 109.24198,82.413069 Z"
       style="fill:#000000;fill-rule:nonzero;stroke:none;stroke-width:0.26458332px;stroke-linecap:butt;stroke-linejoin:miter;stroke-opacity:1" />
    <path
       d="M 104.48687,178.13766 A 22.526518,14.119227 0 0 1 82.160826,192.25633 22.526518,14.119227 0 0 1 59.4374,178.38896 22.526518,14.119227 0 0 1 81.358987,164.02347 22.526518,14.119227 0 0 1 104.4726,177.63515 l -22.51225,0.50251 z"
       id="path113-1-5"
       style="fill:#37abc8;stroke-width:0.25897548" />
    <path
       d="m 149.46604,178.51566 a 22.526518,14.119227 0 0 1 -22.32604,14.11866 22.526518,14.119227 0 0 1 -22.72343,-13.86737 22.526518,14.119227 0 0 1 21.92159,-14.36549 22.526518,14.119227 0 0 1 23.11361,13.61168 l -22.51225,0.50252 z"
       id="path113-1-3-9"
       style="fill:#37abc8;stroke-width:0.25897548" />
    <path
       d="m 194.44522,178.13766 a 22.526518,14.119227 0 0 1 -22.32604,14.11867 22.526518,14.119227 0 0 1 -22.72343,-13.86737 22.526518,14.119227 0 0 1 21.92159,-14.36549 22.526518,14.119227 0 0 1 23.11361,13.61168 l -22.51225,0.50251 z"
       id="path113-1-3-5-7"
       style="fill:#37abc8;stroke-width:0.25897548" />
    <path
       d="m 60.324137,177.55952 a 22.526518,14.119227 0 0 1 -22.326043,14.11867 22.526518,14.119227 0 0 1 -22.723425,-13.86737 22.526518,14.119227 0 0 1 21.921587,-14.36549 22.526518,14.119227 0 0 1 23.113609,13.61168 l -22.512246,0.50251 z"
       id="path113-0"
       style="fill:#37abc8;stroke-width:0.25897548" />
    <ellipse
       ry="21.733629"
       rx="22.111607"
       cy="168.29912"
       cx="32.694935"
       id="path307"
       style="fill:#37abc8;stroke-width:0.24789955" />
    <ellipse
       ry="21.733629"
       rx="22.111607"
       cy="168.4881"
       cx="177.42201"
       id="path307-6"
       style="fill:#37abc8;stroke-width:0.24789955" />
  </g>
</svg>
