<?xml version="1.0" encoding="UTF-8"?>
<svg viewBox="0 0 833.87292 399.12344" xmlns="http://www.w3.org/2000/svg">
 <defs>
  <linearGradient id="a" x2="0" y1="355.11" y2="689.85" gradientUnits="userSpaceOnUse">
   <stop stop-color="#a4cbd8" offset="0"/>
   <stop stop-color="#b4c3dc" stop-opacity="0" offset="1"/>
  </linearGradient>
 </defs>
 <g transform="translate(74.079 -509.94)">
  <path d="m-64.697 509.94h824.49v399.12h-824.49z" fill="#fff"/>
  <path d="m-55.986 517.44h810v291h-810z" fill="url(#a)"/>
  <path d="m582.66 733.15c-7.9425 0.096-14.247 2.4316-19.543 6.6411-4.7511 3.9117-6.5784 8.1422-4.6882 8.6927 3.5505-2.2358 7.7506-3.5334 12.256-3.5334 12.724 0 23.038 10.314 23.038 23.039s-10.838 19.032-23.038 22.644c-9.7944 2.8988-22.894 3.0482-32.613-0.023h-0.01c-59.7-24.288-125.25-90.21-206.47-23.882-48.173 39.337-85.403-14.42-148.1-21.253-25.393-2.7674-60.123 11.681-74.723 22.97-24.517 18.317-111.65-82.742-162.3 29.915-16.178 21.032-7.1181 71.582-0.152 103.99h808.23v-146.03c-36.544-5.2548-78.621-0.7177-114.45 14.338-9.3227-12.76-22.301-28.146-41.229-35.188-6.0807-1.6294-11.434-2.3826-16.2-2.3252zm-27.111 20.524c-1.7726 0.088-3.1761 4.3822-3.1761 6.1395 0 1.8142 1.4979 3.2826 3.3509 3.2826s3.3585-1.4684 3.3585-3.2826-1.5055-6.1395-3.3585-6.1395c-0.058 0-0.1175-0.01-0.1748 0z" fill="#275e85"/>
  <path d="m333.69 734.53c-7.9425 0.096-14.247 2.4316-19.543 6.641-4.7511 3.9117-6.5784 8.1421-4.6882 8.6926 3.5504-2.2357 7.7506-3.5332 12.256-3.5332 12.724 0 23.038 10.314 23.038 23.038 0 6.7597-1.3843 10.271-4.3463 13.024-39.329 4.3705-45.326 24.768-61.791 31.268-17.381 6.8609-61.892 3.8434-100.41-5.3873-7.1654-14.383-17.474-41.147-40.986-54.83-15.24-7.039-26.46-7.0198-35.956-1.8237-5.3471 3.0468-7.8706 6.9093-6.1016 7.7732 3.879-1.5994 8.2418-2.1642 12.682-1.3981 12.539 2.1637 20.947 14.079 18.783 26.618-0.5757 3.3366-1.8388 6.3533-3.6169 8.9433-31.658-4.8674-61.747-0.6729-81.714 7.4618-26.26 10.699-37.445 23.829-85.103 8.267l2.4316 93.074h795.9v-81.304c-24.56-23.007-59.299-45.465-113.73-45.279-73.661-1.1044-83.266 43.956-108.33 47.612-46.302 5.5883-71.95-26.179-131.57-37.742-9.4552-12.361-24.318-38.862-51.001-48.79-6.0808-1.6293-11.442-2.3826-16.208-2.3251z" fill="#79acd4"/>
  <path d="m409.05 787.63c-5.901 0.098-10.995 1.6767-15.594 4.5312-5.1721 3.3352-7.4701 7.3281-5.6563 8.0938 3.7855-1.8098 8.1183-2.6154 12.594-2.0938 12.638 1.4731 24.224 13.932 21.156 26.281-5.4261 21.841-30.49 21.944-50.719 16.281-27.456-7.6867-53.46-27.288-93.594-28.469-87.199-2.5648-92.588 29.437-125.53 44.625-23.645 8.96-43.748-40.208-78.969-53.313-16.216-4.3449-27.276-2.4226-35.75 4.3126-4.7513 3.9115-6.5777 8.1369-4.6876 8.6874 3.5506-2.2358 7.7757-3.5312 12.281-3.5312 12.724 0 23.031 10.307 23.031 23.031 0 7.1102-3.2193 13.352-8.2813 17.469-45.448-17.8-89.201-52.525-132.59-47.594l-0.8126 99.5h828.66v-7.0312c-71.785-48.11-119.98-93.318-208.69-93.75-38.204 0.1256-57.69 14.482-79.469 27.25-7.7872-13.784-18.91-30.651-36.969-39.875-7.8017-3.0965-14.505-4.5043-20.406-4.4062z" fill="#fff"/>
  <path d="m89.15028,774.9634c-1.7728.088-3.1838,4.3821-3.1838,6.1396 0,1.8141 1.5055,3.2901 3.3585,3.2901s3.3509-1.476 3.3509-3.2901-1.4979-6.1396-3.3509-6.1396c-.058,0-.1176-.01-.1747,0z" fill="#79acd4"/>
 </g>
</svg>
